solid OpenSCAD_Model
  facet normal 0.587782 0.80902 -0
    outer loop
      vertex 11.7098 13.005 -49
      vertex 8.75 15.1554 49
      vertex 11.7098 13.005 49
    endloop
  endfacet
  facet normal 0.587782 0.80902 0
    outer loop
      vertex 8.75 15.1554 49
      vertex 11.7098 13.005 -49
      vertex 8.75 15.1554 -49
    endloop
  endfacet
  facet normal 0.406741 0.913544 -0
    outer loop
      vertex 8.75 15.1554 -49
      vertex 5.43534 16.6312 49
      vertex 8.75 15.1554 49
    endloop
  endfacet
  facet normal 0.406741 0.913544 0
    outer loop
      vertex 5.43534 16.6312 49
      vertex 8.75 15.1554 -49
      vertex 5.43534 16.6312 -49
    endloop
  endfacet
  facet normal -0.587782 0.80902 0
    outer loop
      vertex -8.75 15.1554 -49
      vertex -11.7098 13.005 49
      vertex -8.75 15.1554 49
    endloop
  endfacet
  facet normal -0.587782 0.80902 0
    outer loop
      vertex -11.7098 13.005 49
      vertex -8.75 15.1554 -49
      vertex -11.7098 13.005 -49
    endloop
  endfacet
  facet normal -0.406741 0.913544 0
    outer loop
      vertex -5.43534 16.6312 -49
      vertex -8.75 15.1554 49
      vertex -5.43534 16.6312 49
    endloop
  endfacet
  facet normal -0.406741 0.913544 0
    outer loop
      vertex -8.75 15.1554 49
      vertex -5.43534 16.6312 -49
      vertex -8.75 15.1554 -49
    endloop
  endfacet
  facet normal 0.951042 -0.309063 0
    outer loop
      vertex 15.987 -7.11789 49
      vertex 16.5014 -5.53499 -49
      vertex 16.5014 -5.53499 49
    endloop
  endfacet
  facet normal 0.951042 -0.309063 0
    outer loop
      vertex 16.5014 -5.53499 -49
      vertex 15.987 -7.11789 49
      vertex 15.987 -7.11789 -49
    endloop
  endfacet
  facet normal 0.866028 0.499995 0
    outer loop
      vertex 15.987 7.11789 49
      vertex 14.1578 10.2862 -49
      vertex 14.1578 10.2862 49
    endloop
  endfacet
  facet normal 0.866028 0.499995 0
    outer loop
      vertex 14.1578 10.2862 -49
      vertex 15.987 7.11789 49
      vertex 15.987 7.11789 -49
    endloop
  endfacet
  facet normal 0.951042 0.309063 0
    outer loop
      vertex 16.5014 5.53499 49
      vertex 15.987 7.11789 -49
      vertex 15.987 7.11789 49
    endloop
  endfacet
  facet normal 0.951042 0.309063 0
    outer loop
      vertex 15.987 7.11789 -49
      vertex 16.5014 5.53499 49
      vertex 16.5014 5.53499 -49
    endloop
  endfacet
  facet normal 0.743147 0.669128 0
    outer loop
      vertex 14.1578 10.2862 49
      vertex 11.7098 13.005 -49
      vertex 11.7098 13.005 49
    endloop
  endfacet
  facet normal 0.743147 0.669128 0
    outer loop
      vertex 11.7098 13.005 -49
      vertex 14.1578 10.2862 49
      vertex 14.1578 10.2862 -49
    endloop
  endfacet
  facet normal -0.866028 0.499995 0
    outer loop
      vertex -15.987 7.11789 -49
      vertex -14.1578 10.2862 49
      vertex -14.1578 10.2862 -49
    endloop
  endfacet
  facet normal -0.866028 0.499995 0
    outer loop
      vertex -14.1578 10.2862 49
      vertex -15.987 7.11789 -49
      vertex -15.987 7.11789 49
    endloop
  endfacet
  facet normal -0.743147 0.669128 0
    outer loop
      vertex -14.1578 10.2862 -49
      vertex -11.7098 13.005 49
      vertex -11.7098 13.005 -49
    endloop
  endfacet
  facet normal -0.743147 0.669128 0
    outer loop
      vertex -11.7098 13.005 49
      vertex -14.1578 10.2862 -49
      vertex -14.1578 10.2862 49
    endloop
  endfacet
  facet normal -0.951042 0.309063 0
    outer loop
      vertex -16.5014 5.53499 -49
      vertex -15.987 7.11789 49
      vertex -15.987 7.11789 -49
    endloop
  endfacet
  facet normal -0.951042 0.309063 0
    outer loop
      vertex -15.987 7.11789 49
      vertex -16.5014 5.53499 -49
      vertex -16.5014 5.53499 49
    endloop
  endfacet
  facet normal 0 0 1
    outer loop
      vertex -8.75 15.1554 49
      vertex -6.49519 15.25 49
      vertex -5.43534 16.6312 49
    endloop
  endfacet
  facet normal -0 0 1
    outer loop
      vertex -8.75 15.1554 49
      vertex -7.24444 13.4411 49
      vertex -6.49519 15.25 49
    endloop
  endfacet
  facet normal 0 0 1
    outer loop
      vertex -11.7098 13.005 49
      vertex -7.24444 13.4411 49
      vertex -8.75 15.1554 49
    endloop
  endfacet
  facet normal 0 0 1
    outer loop
      vertex -7.24444 13.4411 49
      vertex -11.7098 13.005 49
      vertex -7.5 11.5 49
    endloop
  endfacet
  facet normal 0 0 1
    outer loop
      vertex -7.5 11.5 49
      vertex -9.55886 7.24444 49
      vertex -7.75 6.49519 49
    endloop
  endfacet
  facet normal 0 -0 1
    outer loop
      vertex -11.5 7.5 49
      vertex -7.5 11.5 49
      vertex -11.7098 13.005 49
    endloop
  endfacet
  facet normal 0 0 1
    outer loop
      vertex -7.5 11.5 49
      vertex -11.5 7.5 49
      vertex -9.55886 7.24444 49
    endloop
  endfacet
  facet normal -0 0 1
    outer loop
      vertex -14.1578 10.2862 49
      vertex -11.5 7.5 49
      vertex -11.7098 13.005 49
    endloop
  endfacet
  facet normal 0 0 1
    outer loop
      vertex -11.5 7.5 49
      vertex -14.1578 10.2862 49
      vertex -13.4411 7.24444 49
    endloop
  endfacet
  facet normal 0 0 1
    outer loop
      vertex -15.987 7.11789 49
      vertex -13.4411 7.24444 49
      vertex -14.1578 10.2862 49
    endloop
  endfacet
  facet normal 0 0 1
    outer loop
      vertex -13.4411 7.24444 49
      vertex -15.987 7.11789 49
      vertex -15.25 6.49519 49
    endloop
  endfacet
  facet normal 0 0 1
    outer loop
      vertex -15.25 6.49519 49
      vertex -15.987 7.11789 49
      vertex -16.5014 5.53499 49
    endloop
  endfacet
  facet normal 0 0 1
    outer loop
      vertex -1.94114 -4.25556 49
      vertex -4.25556 -1.94114 49
      vertex -3.75 -5.00481 49
    endloop
  endfacet
  facet normal -0 0 1
    outer loop
      vertex -5.00481 -3.75 49
      vertex -3.75 -5.00481 49
      vertex -4.25556 -1.94114 49
    endloop
  endfacet
  facet normal 0 0 1
    outer loop
      vertex -5.00481 -3.75 49
      vertex -5.3033 -6.1967 49
      vertex -3.75 -5.00481 49
    endloop
  endfacet
  facet normal -0 0 1
    outer loop
      vertex -6.1967 -5.3033 49
      vertex -5.3033 -6.1967 49
      vertex -5.00481 -3.75 49
    endloop
  endfacet
  facet normal 0 0 1
    outer loop
      vertex -6.1967 -5.3033 49
      vertex -6.49519 -7.75 49
      vertex -5.3033 -6.1967 49
    endloop
  endfacet
  facet normal -0 0 1
    outer loop
      vertex -7.75 -6.49519 49
      vertex -6.49519 -7.75 49
      vertex -6.1967 -5.3033 49
    endloop
  endfacet
  facet normal -0 0 1
    outer loop
      vertex -9.55886 -7.24444 49
      vertex -7.24444 -9.55886 49
      vertex -7.75 -6.49519 49
    endloop
  endfacet
  facet normal 0 0 1
    outer loop
      vertex -6.49519 -7.75 49
      vertex -7.75 -6.49519 49
      vertex -7.24444 -9.55886 49
    endloop
  endfacet
  facet normal 0 0 1
    outer loop
      vertex 15.987 7.11789 49
      vertex 15.25 6.49519 49
      vertex 16.5014 5.53499 49
    endloop
  endfacet
  facet normal -0 0 1
    outer loop
      vertex 13.4411 7.24444 49
      vertex 15.987 7.11789 49
      vertex 14.1578 10.2862 49
    endloop
  endfacet
  facet normal 0 0 1
    outer loop
      vertex 15.987 7.11789 49
      vertex 13.4411 7.24444 49
      vertex 15.25 6.49519 49
    endloop
  endfacet
  facet normal 0 0 1
    outer loop
      vertex 11.5 7.5 49
      vertex 14.1578 10.2862 49
      vertex 11.7098 13.005 49
    endloop
  endfacet
  facet normal 0 0 1
    outer loop
      vertex 14.1578 10.2862 49
      vertex 11.5 7.5 49
      vertex 13.4411 7.24444 49
    endloop
  endfacet
  facet normal -0 0 1
    outer loop
      vertex 7.5 11.5 49
      vertex 11.5 7.5 49
      vertex 11.7098 13.005 49
    endloop
  endfacet
  facet normal -0 0 1
    outer loop
      vertex 7.24444 13.4411 49
      vertex 11.7098 13.005 49
      vertex 8.75 15.1554 49
    endloop
  endfacet
  facet normal 0 0 1
    outer loop
      vertex 11.5 7.5 49
      vertex 7.5 11.5 49
      vertex 9.55886 7.24444 49
    endloop
  endfacet
  facet normal -0 0 1
    outer loop
      vertex 7.24444 9.55886 49
      vertex 9.55886 7.24444 49
      vertex 7.5 11.5 49
    endloop
  endfacet
  facet normal 0 0 1
    outer loop
      vertex 11.7098 13.005 49
      vertex 7.24444 13.4411 49
      vertex 7.5 11.5 49
    endloop
  endfacet
  facet normal 0 0 1
    outer loop
      vertex 8.75 15.1554 49
      vertex 6.49519 15.25 49
      vertex 7.24444 13.4411 49
    endloop
  endfacet
  facet normal -0 -0 1
    outer loop
      vertex 6.49519 15.25 49
      vertex 8.75 15.1554 49
      vertex 5.43534 16.6312 49
    endloop
  endfacet
  facet normal 0 0 1
    outer loop
      vertex 9.55886 7.24444 49
      vertex 7.24444 9.55886 49
      vertex 7.75 6.49519 49
    endloop
  endfacet
  facet normal -0 0 1
    outer loop
      vertex 6.49519 7.75 49
      vertex 7.75 6.49519 49
      vertex 7.24444 9.55886 49
    endloop
  endfacet
  facet normal 0 0 1
    outer loop
      vertex 6.49519 7.75 49
      vertex 6.1967 5.3033 49
      vertex 7.75 6.49519 49
    endloop
  endfacet
  facet normal -0 0 1
    outer loop
      vertex 5.3033 6.1967 49
      vertex 6.1967 5.3033 49
      vertex 6.49519 7.75 49
    endloop
  endfacet
  facet normal 0 0 1
    outer loop
      vertex 5.3033 6.1967 49
      vertex 5.00481 3.75 49
      vertex 6.1967 5.3033 49
    endloop
  endfacet
  facet normal -0 0 1
    outer loop
      vertex 3.75 5.00481 49
      vertex 5.00481 3.75 49
      vertex 5.3033 6.1967 49
    endloop
  endfacet
  facet normal -0 0 1
    outer loop
      vertex 1.94114 4.25556 49
      vertex 4.25556 1.94114 49
      vertex 3.75 5.00481 49
    endloop
  endfacet
  facet normal 0 0 1
    outer loop
      vertex 5.00481 3.75 49
      vertex 3.75 5.00481 49
      vertex 4.25556 1.94114 49
    endloop
  endfacet
  facet normal 0 0 1
    outer loop
      vertex 9.55886 -7.24444 49
      vertex 7.24444 -9.55886 49
      vertex 7.5 -11.5 49
    endloop
  endfacet
  facet normal 0 0 1
    outer loop
      vertex 7.75 -6.49519 49
      vertex 6.49519 -7.75 49
      vertex 7.24444 -9.55886 49
    endloop
  endfacet
  facet normal 0 0 1
    outer loop
      vertex 6.1967 -5.3033 49
      vertex 6.49519 -7.75 49
      vertex 7.75 -6.49519 49
    endloop
  endfacet
  facet normal 0 0 1
    outer loop
      vertex 6.1967 -5.3033 49
      vertex 5.3033 -6.1967 49
      vertex 6.49519 -7.75 49
    endloop
  endfacet
  facet normal 0 0 1
    outer loop
      vertex 5.00481 -3.75 49
      vertex 5.3033 -6.1967 49
      vertex 6.1967 -5.3033 49
    endloop
  endfacet
  facet normal 0 0 1
    outer loop
      vertex 3.75 -5.00481 49
      vertex 5.00481 -3.75 49
      vertex 4.25556 -1.94114 49
    endloop
  endfacet
  facet normal 0 0 1
    outer loop
      vertex 5.00481 -3.75 49
      vertex 3.75 -5.00481 49
      vertex 5.3033 -6.1967 49
    endloop
  endfacet
  facet normal -0 0 1
    outer loop
      vertex 3 0 49
      vertex 4.25556 -1.94114 49
      vertex 4 0 49
    endloop
  endfacet
  facet normal 0 -0 1
    outer loop
      vertex 3 0 49
      vertex 4.25556 1.94114 49
      vertex 2.42705 1.76336 49
    endloop
  endfacet
  facet normal 0 0 1
    outer loop
      vertex 4.25556 -1.94114 49
      vertex 3 0 49
      vertex 2.42705 -1.76336 49
    endloop
  endfacet
  facet normal 0 0 1
    outer loop
      vertex 4.25556 1.94114 49
      vertex 3 0 49
      vertex 4 0 49
    endloop
  endfacet
  facet normal 0 0 1
    outer loop
      vertex 4.25556 1.94114 49
      vertex 1.94114 4.25556 49
      vertex 2.42705 1.76336 49
    endloop
  endfacet
  facet normal 0 0 1
    outer loop
      vertex 1.94114 4.25556 49
      vertex 0.927051 2.85317 49
      vertex 2.42705 1.76336 49
    endloop
  endfacet
  facet normal -0 0 1
    outer loop
      vertex 0 4 49
      vertex 0.927051 2.85317 49
      vertex 1.94114 4.25556 49
    endloop
  endfacet
  facet normal 0 0 1
    outer loop
      vertex 0 4 49
      vertex -0.927051 2.85317 49
      vertex 0.927051 2.85317 49
    endloop
  endfacet
  facet normal 0 0 1
    outer loop
      vertex -1.94114 4.25556 49
      vertex -0.927051 2.85317 49
      vertex 0 4 49
    endloop
  endfacet
  facet normal 0 0 1
    outer loop
      vertex -1.94114 4.25556 49
      vertex -2.42705 1.76336 49
      vertex -0.927051 2.85317 49
    endloop
  endfacet
  facet normal -0 0 1
    outer loop
      vertex -4.25556 1.94114 49
      vertex -2.42705 1.76336 49
      vertex -1.94114 4.25556 49
    endloop
  endfacet
  facet normal 0 0 1
    outer loop
      vertex -4.25556 1.94114 49
      vertex -1.94114 4.25556 49
      vertex -3.75 5.00481 49
    endloop
  endfacet
  facet normal -0 0 1
    outer loop
      vertex 15.25 -6.49519 49
      vertex 15.987 -7.11789 49
      vertex 16.5014 -5.53499 49
    endloop
  endfacet
  facet normal 0 0 1
    outer loop
      vertex 13.4411 -7.24444 49
      vertex 15.987 -7.11789 49
      vertex 15.25 -6.49519 49
    endloop
  endfacet
  facet normal 0 0 1
    outer loop
      vertex 15.987 -7.11789 49
      vertex 13.4411 -7.24444 49
      vertex 14.1578 -10.2862 49
    endloop
  endfacet
  facet normal -0 0 1
    outer loop
      vertex 11.5 -7.5 49
      vertex 14.1578 -10.2862 49
      vertex 13.4411 -7.24444 49
    endloop
  endfacet
  facet normal 0 0 1
    outer loop
      vertex 14.1578 -10.2862 49
      vertex 11.5 -7.5 49
      vertex 11.7098 -13.005 49
    endloop
  endfacet
  facet normal 0 0 1
    outer loop
      vertex 7.5 -11.5 49
      vertex 11.5 -7.5 49
      vertex 9.55886 -7.24444 49
    endloop
  endfacet
  facet normal 0 0 1
    outer loop
      vertex 11.5 -7.5 49
      vertex 7.5 -11.5 49
      vertex 11.7098 -13.005 49
    endloop
  endfacet
  facet normal 0 0 1
    outer loop
      vertex 7.24444 -9.55886 49
      vertex 9.55886 -7.24444 49
      vertex 7.75 -6.49519 49
    endloop
  endfacet
  facet normal 0 0 1
    outer loop
      vertex 7.24444 -13.4411 49
      vertex 11.7098 -13.005 49
      vertex 7.5 -11.5 49
    endloop
  endfacet
  facet normal 0 0 1
    outer loop
      vertex 11.7098 -13.005 49
      vertex 7.24444 -13.4411 49
      vertex 8.75 -15.1554 49
    endloop
  endfacet
  facet normal 0 0 1
    outer loop
      vertex 6.49519 -15.25 49
      vertex 8.75 -15.1554 49
      vertex 7.24444 -13.4411 49
    endloop
  endfacet
  facet normal 0 0 1
    outer loop
      vertex 8.75 -15.1554 49
      vertex 6.49519 -15.25 49
      vertex 5.43534 -16.6312 49
    endloop
  endfacet
  facet normal 0 0 1
    outer loop
      vertex -6.49519 -15.25 49
      vertex -8.75 -15.1554 49
      vertex -5.43534 -16.6312 49
    endloop
  endfacet
  facet normal 0 0 1
    outer loop
      vertex -7.24444 -13.4411 49
      vertex -8.75 -15.1554 49
      vertex -6.49519 -15.25 49
    endloop
  endfacet
  facet normal -0 0 1
    outer loop
      vertex -11.7098 -13.005 49
      vertex -7.24444 -13.4411 49
      vertex -7.5 -11.5 49
    endloop
  endfacet
  facet normal 0 0 1
    outer loop
      vertex -7.24444 -9.55886 49
      vertex -9.55886 -7.24444 49
      vertex -7.5 -11.5 49
    endloop
  endfacet
  facet normal -0 0 1
    outer loop
      vertex -11.5 -7.5 49
      vertex -7.5 -11.5 49
      vertex -9.55886 -7.24444 49
    endloop
  endfacet
  facet normal 0 0 1
    outer loop
      vertex -7.5 -11.5 49
      vertex -11.5 -7.5 49
      vertex -11.7098 -13.005 49
    endloop
  endfacet
  facet normal 0 0 1
    outer loop
      vertex -7.24444 -13.4411 49
      vertex -11.7098 -13.005 49
      vertex -8.75 -15.1554 49
    endloop
  endfacet
  facet normal 0 0 1
    outer loop
      vertex -14.1578 -10.2862 49
      vertex -11.5 -7.5 49
      vertex -13.4411 -7.24444 49
    endloop
  endfacet
  facet normal 0 0 1
    outer loop
      vertex -11.5 -7.5 49
      vertex -14.1578 -10.2862 49
      vertex -11.7098 -13.005 49
    endloop
  endfacet
  facet normal -0 0 1
    outer loop
      vertex -15.987 -7.11789 49
      vertex -13.4411 -7.24444 49
      vertex -15.25 -6.49519 49
    endloop
  endfacet
  facet normal 0 0 1
    outer loop
      vertex -13.4411 -7.24444 49
      vertex -15.987 -7.11789 49
      vertex -14.1578 -10.2862 49
    endloop
  endfacet
  facet normal 0 -0 1
    outer loop
      vertex -15.987 -7.11789 49
      vertex -15.25 -6.49519 49
      vertex -16.5014 -5.53499 49
    endloop
  endfacet
  facet normal 0 0 1
    outer loop
      vertex 1.94114 -4.25556 49
      vertex 4.25556 -1.94114 49
      vertex 2.42705 -1.76336 49
    endloop
  endfacet
  facet normal 0 0 1
    outer loop
      vertex 4.25556 -1.94114 49
      vertex 1.94114 -4.25556 49
      vertex 3.75 -5.00481 49
    endloop
  endfacet
  facet normal -0 0 1
    outer loop
      vertex 0.927051 -2.85317 49
      vertex 1.94114 -4.25556 49
      vertex 2.42705 -1.76336 49
    endloop
  endfacet
  facet normal 0 0 1
    outer loop
      vertex 0.927051 -2.85317 49
      vertex 0 -4 49
      vertex 1.94114 -4.25556 49
    endloop
  endfacet
  facet normal -0 0 1
    outer loop
      vertex -0.927051 -2.85317 49
      vertex 0 -4 49
      vertex 0.927051 -2.85317 49
    endloop
  endfacet
  facet normal 0 0 1
    outer loop
      vertex -0.927051 -2.85317 49
      vertex -1.94114 -4.25556 49
      vertex 0 -4 49
    endloop
  endfacet
  facet normal 0 0 1
    outer loop
      vertex -2.42705 -1.76336 49
      vertex -1.94114 -4.25556 49
      vertex -0.927051 -2.85317 49
    endloop
  endfacet
  facet normal 0 0 1
    outer loop
      vertex -4.25556 -1.94114 49
      vertex -3 0 49
      vertex -4 0 49
    endloop
  endfacet
  facet normal 0 0 1
    outer loop
      vertex -3 0 49
      vertex -4.25556 -1.94114 49
      vertex -2.42705 -1.76336 49
    endloop
  endfacet
  facet normal 0 0 1
    outer loop
      vertex -2.42705 1.76336 49
      vertex -4.25556 1.94114 49
      vertex -3 0 49
    endloop
  endfacet
  facet normal -0 0 1
    outer loop
      vertex -4.25556 -1.94114 49
      vertex -1.94114 -4.25556 49
      vertex -2.42705 -1.76336 49
    endloop
  endfacet
  facet normal 0 0 1
    outer loop
      vertex -3 0 49
      vertex -4.25556 1.94114 49
      vertex -4 0 49
    endloop
  endfacet
  facet normal 0 0 1
    outer loop
      vertex -3.75 5.00481 49
      vertex -5.00481 3.75 49
      vertex -4.25556 1.94114 49
    endloop
  endfacet
  facet normal 0 0 1
    outer loop
      vertex -5.3033 6.1967 49
      vertex -5.00481 3.75 49
      vertex -3.75 5.00481 49
    endloop
  endfacet
  facet normal 0 0 1
    outer loop
      vertex -5.3033 6.1967 49
      vertex -6.1967 5.3033 49
      vertex -5.00481 3.75 49
    endloop
  endfacet
  facet normal 0 0 1
    outer loop
      vertex -6.49519 7.75 49
      vertex -6.1967 5.3033 49
      vertex -5.3033 6.1967 49
    endloop
  endfacet
  facet normal 0 0 1
    outer loop
      vertex -7.75 6.49519 49
      vertex -6.49519 7.75 49
      vertex -7.24444 9.55886 49
    endloop
  endfacet
  facet normal 0 0 1
    outer loop
      vertex -6.49519 7.75 49
      vertex -7.75 6.49519 49
      vertex -6.1967 5.3033 49
    endloop
  endfacet
  facet normal 0 0 1
    outer loop
      vertex -7.75 6.49519 49
      vertex -7.24444 9.55886 49
      vertex -7.5 11.5 49
    endloop
  endfacet
  facet normal 0 0 -1
    outer loop
      vertex -8.75 -15.1554 -49
      vertex -6.49519 -15.25 -49
      vertex -5.43534 -16.6312 -49
    endloop
  endfacet
  facet normal 0 0 -1
    outer loop
      vertex -8.75 -15.1554 -49
      vertex -7.24444 -13.4411 -49
      vertex -6.49519 -15.25 -49
    endloop
  endfacet
  facet normal 0 0 -1
    outer loop
      vertex -11.7098 -13.005 -49
      vertex -7.24444 -13.4411 -49
      vertex -8.75 -15.1554 -49
    endloop
  endfacet
  facet normal 0 0 -1
    outer loop
      vertex -7.24444 -13.4411 -49
      vertex -11.7098 -13.005 -49
      vertex -7.5 -11.5 -49
    endloop
  endfacet
  facet normal 0 0 -1
    outer loop
      vertex -7.5 -11.5 -49
      vertex -9.55886 -7.24444 -49
      vertex -7.75 -6.49519 -49
    endloop
  endfacet
  facet normal 0 -0 -1
    outer loop
      vertex -11.5 -7.5 -49
      vertex -7.5 -11.5 -49
      vertex -11.7098 -13.005 -49
    endloop
  endfacet
  facet normal 0 0 -1
    outer loop
      vertex -7.5 -11.5 -49
      vertex -11.5 -7.5 -49
      vertex -9.55886 -7.24444 -49
    endloop
  endfacet
  facet normal 0 0 -1
    outer loop
      vertex -14.1578 -10.2862 -49
      vertex -11.5 -7.5 -49
      vertex -11.7098 -13.005 -49
    endloop
  endfacet
  facet normal -0 0 -1
    outer loop
      vertex -11.5 -7.5 -49
      vertex -14.1578 -10.2862 -49
      vertex -13.4411 -7.24444 -49
    endloop
  endfacet
  facet normal 0 0 -1
    outer loop
      vertex -15.987 -7.11789 -49
      vertex -13.4411 -7.24444 -49
      vertex -14.1578 -10.2862 -49
    endloop
  endfacet
  facet normal 0 0 -1
    outer loop
      vertex -13.4411 -7.24444 -49
      vertex -15.987 -7.11789 -49
      vertex -15.25 -6.49519 -49
    endloop
  endfacet
  facet normal -0 0 -1
    outer loop
      vertex -15.25 -6.49519 -49
      vertex -15.987 -7.11789 -49
      vertex -16.5014 -5.53499 -49
    endloop
  endfacet
  facet normal -0 0 -1
    outer loop
      vertex -1.94114 4.25556 -49
      vertex -4.25556 1.94114 -49
      vertex -3.75 5.00481 -49
    endloop
  endfacet
  facet normal 0 0 -1
    outer loop
      vertex -5.00481 3.75 -49
      vertex -3.75 5.00481 -49
      vertex -4.25556 1.94114 -49
    endloop
  endfacet
  facet normal 0 0 -1
    outer loop
      vertex -5.00481 3.75 -49
      vertex -5.3033 6.1967 -49
      vertex -3.75 5.00481 -49
    endloop
  endfacet
  facet normal 0 0 -1
    outer loop
      vertex -6.1967 5.3033 -49
      vertex -5.3033 6.1967 -49
      vertex -5.00481 3.75 -49
    endloop
  endfacet
  facet normal 0 0 -1
    outer loop
      vertex -6.1967 5.3033 -49
      vertex -6.49519 7.75 -49
      vertex -5.3033 6.1967 -49
    endloop
  endfacet
  facet normal 0 0 -1
    outer loop
      vertex -7.75 6.49519 -49
      vertex -6.49519 7.75 -49
      vertex -6.1967 5.3033 -49
    endloop
  endfacet
  facet normal 0 0 -1
    outer loop
      vertex -9.55886 7.24444 -49
      vertex -7.24444 9.55886 -49
      vertex -7.75 6.49519 -49
    endloop
  endfacet
  facet normal -0 0 -1
    outer loop
      vertex -6.49519 7.75 -49
      vertex -7.75 6.49519 -49
      vertex -7.24444 9.55886 -49
    endloop
  endfacet
  facet normal 0 0 -1
    outer loop
      vertex 15.987 -7.11789 -49
      vertex 15.25 -6.49519 -49
      vertex 16.5014 -5.53499 -49
    endloop
  endfacet
  facet normal 0 0 -1
    outer loop
      vertex 13.4411 -7.24444 -49
      vertex 15.987 -7.11789 -49
      vertex 14.1578 -10.2862 -49
    endloop
  endfacet
  facet normal -0 0 -1
    outer loop
      vertex 15.987 -7.11789 -49
      vertex 13.4411 -7.24444 -49
      vertex 15.25 -6.49519 -49
    endloop
  endfacet
  facet normal 0 0 -1
    outer loop
      vertex 11.5 -7.5 -49
      vertex 14.1578 -10.2862 -49
      vertex 11.7098 -13.005 -49
    endloop
  endfacet
  facet normal 0 0 -1
    outer loop
      vertex 14.1578 -10.2862 -49
      vertex 11.5 -7.5 -49
      vertex 13.4411 -7.24444 -49
    endloop
  endfacet
  facet normal 0 0 -1
    outer loop
      vertex 7.5 -11.5 -49
      vertex 11.5 -7.5 -49
      vertex 11.7098 -13.005 -49
    endloop
  endfacet
  facet normal 0 0 -1
    outer loop
      vertex 7.24444 -13.4411 -49
      vertex 11.7098 -13.005 -49
      vertex 8.75 -15.1554 -49
    endloop
  endfacet
  facet normal -0 0 -1
    outer loop
      vertex 11.5 -7.5 -49
      vertex 7.5 -11.5 -49
      vertex 9.55886 -7.24444 -49
    endloop
  endfacet
  facet normal 0 0 -1
    outer loop
      vertex 7.24444 -9.55886 -49
      vertex 9.55886 -7.24444 -49
      vertex 7.5 -11.5 -49
    endloop
  endfacet
  facet normal -0 0 -1
    outer loop
      vertex 11.7098 -13.005 -49
      vertex 7.24444 -13.4411 -49
      vertex 7.5 -11.5 -49
    endloop
  endfacet
  facet normal -0 0 -1
    outer loop
      vertex 8.75 -15.1554 -49
      vertex 6.49519 -15.25 -49
      vertex 7.24444 -13.4411 -49
    endloop
  endfacet
  facet normal 0 -0 -1
    outer loop
      vertex 6.49519 -15.25 -49
      vertex 8.75 -15.1554 -49
      vertex 5.43534 -16.6312 -49
    endloop
  endfacet
  facet normal -0 0 -1
    outer loop
      vertex 9.55886 -7.24444 -49
      vertex 7.24444 -9.55886 -49
      vertex 7.75 -6.49519 -49
    endloop
  endfacet
  facet normal 0 0 -1
    outer loop
      vertex 6.49519 -7.75 -49
      vertex 7.75 -6.49519 -49
      vertex 7.24444 -9.55886 -49
    endloop
  endfacet
  facet normal 0 0 -1
    outer loop
      vertex 6.49519 -7.75 -49
      vertex 6.1967 -5.3033 -49
      vertex 7.75 -6.49519 -49
    endloop
  endfacet
  facet normal 0 0 -1
    outer loop
      vertex 5.3033 -6.1967 -49
      vertex 6.1967 -5.3033 -49
      vertex 6.49519 -7.75 -49
    endloop
  endfacet
  facet normal 0 0 -1
    outer loop
      vertex 5.3033 -6.1967 -49
      vertex 5.00481 -3.75 -49
      vertex 6.1967 -5.3033 -49
    endloop
  endfacet
  facet normal 0 0 -1
    outer loop
      vertex 3.75 -5.00481 -49
      vertex 5.00481 -3.75 -49
      vertex 5.3033 -6.1967 -49
    endloop
  endfacet
  facet normal 0 0 -1
    outer loop
      vertex 1.94114 -4.25556 -49
      vertex 4.25556 -1.94114 -49
      vertex 3.75 -5.00481 -49
    endloop
  endfacet
  facet normal -0 0 -1
    outer loop
      vertex 5.00481 -3.75 -49
      vertex 3.75 -5.00481 -49
      vertex 4.25556 -1.94114 -49
    endloop
  endfacet
  facet normal 0 0 -1
    outer loop
      vertex 9.55886 7.24444 -49
      vertex 7.24444 9.55886 -49
      vertex 7.5 11.5 -49
    endloop
  endfacet
  facet normal 0 0 -1
    outer loop
      vertex 7.75 6.49519 -49
      vertex 6.49519 7.75 -49
      vertex 7.24444 9.55886 -49
    endloop
  endfacet
  facet normal 0 0 -1
    outer loop
      vertex 6.1967 5.3033 -49
      vertex 6.49519 7.75 -49
      vertex 7.75 6.49519 -49
    endloop
  endfacet
  facet normal 0 0 -1
    outer loop
      vertex 6.1967 5.3033 -49
      vertex 5.3033 6.1967 -49
      vertex 6.49519 7.75 -49
    endloop
  endfacet
  facet normal 0 0 -1
    outer loop
      vertex 5.00481 3.75 -49
      vertex 5.3033 6.1967 -49
      vertex 6.1967 5.3033 -49
    endloop
  endfacet
  facet normal 0 0 -1
    outer loop
      vertex 3.75 5.00481 -49
      vertex 5.00481 3.75 -49
      vertex 4.25556 1.94114 -49
    endloop
  endfacet
  facet normal 0 0 -1
    outer loop
      vertex 5.00481 3.75 -49
      vertex 3.75 5.00481 -49
      vertex 5.3033 6.1967 -49
    endloop
  endfacet
  facet normal 0 0 -1
    outer loop
      vertex 3 0 -49
      vertex 4.25556 1.94114 -49
      vertex 4 0 -49
    endloop
  endfacet
  facet normal 0 -0 -1
    outer loop
      vertex 3 0 -49
      vertex 4.25556 -1.94114 -49
      vertex 2.42705 -1.76336 -49
    endloop
  endfacet
  facet normal 0 0 -1
    outer loop
      vertex 4.25556 1.94114 -49
      vertex 3 0 -49
      vertex 2.42705 1.76336 -49
    endloop
  endfacet
  facet normal 0 0 -1
    outer loop
      vertex 4.25556 -1.94114 -49
      vertex 3 0 -49
      vertex 4 0 -49
    endloop
  endfacet
  facet normal -0 0 -1
    outer loop
      vertex 4.25556 -1.94114 -49
      vertex 1.94114 -4.25556 -49
      vertex 2.42705 -1.76336 -49
    endloop
  endfacet
  facet normal 0 0 -1
    outer loop
      vertex 1.94114 -4.25556 -49
      vertex 0.927051 -2.85317 -49
      vertex 2.42705 -1.76336 -49
    endloop
  endfacet
  facet normal 0 0 -1
    outer loop
      vertex 0 -4 -49
      vertex 0.927051 -2.85317 -49
      vertex 1.94114 -4.25556 -49
    endloop
  endfacet
  facet normal 0 0 -1
    outer loop
      vertex 0 -4 -49
      vertex -0.927051 -2.85317 -49
      vertex 0.927051 -2.85317 -49
    endloop
  endfacet
  facet normal 0 0 -1
    outer loop
      vertex -1.94114 -4.25556 -49
      vertex -0.927051 -2.85317 -49
      vertex 0 -4 -49
    endloop
  endfacet
  facet normal 0 0 -1
    outer loop
      vertex -1.94114 -4.25556 -49
      vertex -2.42705 -1.76336 -49
      vertex -0.927051 -2.85317 -49
    endloop
  endfacet
  facet normal 0 0 -1
    outer loop
      vertex -4.25556 -1.94114 -49
      vertex -2.42705 -1.76336 -49
      vertex -1.94114 -4.25556 -49
    endloop
  endfacet
  facet normal 0 0 -1
    outer loop
      vertex -4.25556 -1.94114 -49
      vertex -1.94114 -4.25556 -49
      vertex -3.75 -5.00481 -49
    endloop
  endfacet
  facet normal 0 0 -1
    outer loop
      vertex 15.25 6.49519 -49
      vertex 15.987 7.11789 -49
      vertex 16.5014 5.53499 -49
    endloop
  endfacet
  facet normal 0 0 -1
    outer loop
      vertex 13.4411 7.24444 -49
      vertex 15.987 7.11789 -49
      vertex 15.25 6.49519 -49
    endloop
  endfacet
  facet normal 0 0 -1
    outer loop
      vertex 15.987 7.11789 -49
      vertex 13.4411 7.24444 -49
      vertex 14.1578 10.2862 -49
    endloop
  endfacet
  facet normal 0 0 -1
    outer loop
      vertex 11.5 7.5 -49
      vertex 14.1578 10.2862 -49
      vertex 13.4411 7.24444 -49
    endloop
  endfacet
  facet normal -0 0 -1
    outer loop
      vertex 14.1578 10.2862 -49
      vertex 11.5 7.5 -49
      vertex 11.7098 13.005 -49
    endloop
  endfacet
  facet normal 0 0 -1
    outer loop
      vertex 7.5 11.5 -49
      vertex 11.5 7.5 -49
      vertex 9.55886 7.24444 -49
    endloop
  endfacet
  facet normal 0 0 -1
    outer loop
      vertex 11.5 7.5 -49
      vertex 7.5 11.5 -49
      vertex 11.7098 13.005 -49
    endloop
  endfacet
  facet normal 0 0 -1
    outer loop
      vertex 7.24444 9.55886 -49
      vertex 9.55886 7.24444 -49
      vertex 7.75 6.49519 -49
    endloop
  endfacet
  facet normal 0 0 -1
    outer loop
      vertex 7.24444 13.4411 -49
      vertex 11.7098 13.005 -49
      vertex 7.5 11.5 -49
    endloop
  endfacet
  facet normal 0 0 -1
    outer loop
      vertex 11.7098 13.005 -49
      vertex 7.24444 13.4411 -49
      vertex 8.75 15.1554 -49
    endloop
  endfacet
  facet normal 0 0 -1
    outer loop
      vertex 6.49519 15.25 -49
      vertex 8.75 15.1554 -49
      vertex 7.24444 13.4411 -49
    endloop
  endfacet
  facet normal 0 0 -1
    outer loop
      vertex 8.75 15.1554 -49
      vertex 6.49519 15.25 -49
      vertex 5.43534 16.6312 -49
    endloop
  endfacet
  facet normal -0 0 -1
    outer loop
      vertex -6.49519 15.25 -49
      vertex -8.75 15.1554 -49
      vertex -5.43534 16.6312 -49
    endloop
  endfacet
  facet normal 0 0 -1
    outer loop
      vertex -7.24444 13.4411 -49
      vertex -8.75 15.1554 -49
      vertex -6.49519 15.25 -49
    endloop
  endfacet
  facet normal 0 0 -1
    outer loop
      vertex -11.7098 13.005 -49
      vertex -7.24444 13.4411 -49
      vertex -7.5 11.5 -49
    endloop
  endfacet
  facet normal -0 0 -1
    outer loop
      vertex -7.24444 9.55886 -49
      vertex -9.55886 7.24444 -49
      vertex -7.5 11.5 -49
    endloop
  endfacet
  facet normal 0 0 -1
    outer loop
      vertex -11.5 7.5 -49
      vertex -7.5 11.5 -49
      vertex -9.55886 7.24444 -49
    endloop
  endfacet
  facet normal -0 0 -1
    outer loop
      vertex -7.5 11.5 -49
      vertex -11.5 7.5 -49
      vertex -11.7098 13.005 -49
    endloop
  endfacet
  facet normal -0 0 -1
    outer loop
      vertex -7.24444 13.4411 -49
      vertex -11.7098 13.005 -49
      vertex -8.75 15.1554 -49
    endloop
  endfacet
  facet normal 0 0 -1
    outer loop
      vertex -14.1578 10.2862 -49
      vertex -11.5 7.5 -49
      vertex -13.4411 7.24444 -49
    endloop
  endfacet
  facet normal 0 0 -1
    outer loop
      vertex -11.5 7.5 -49
      vertex -14.1578 10.2862 -49
      vertex -11.7098 13.005 -49
    endloop
  endfacet
  facet normal 0 0 -1
    outer loop
      vertex -15.987 7.11789 -49
      vertex -13.4411 7.24444 -49
      vertex -15.25 6.49519 -49
    endloop
  endfacet
  facet normal -0 0 -1
    outer loop
      vertex -13.4411 7.24444 -49
      vertex -15.987 7.11789 -49
      vertex -14.1578 10.2862 -49
    endloop
  endfacet
  facet normal 0 -0 -1
    outer loop
      vertex -15.987 7.11789 -49
      vertex -15.25 6.49519 -49
      vertex -16.5014 5.53499 -49
    endloop
  endfacet
  facet normal 0 0 -1
    outer loop
      vertex 1.94114 4.25556 -49
      vertex 4.25556 1.94114 -49
      vertex 2.42705 1.76336 -49
    endloop
  endfacet
  facet normal 0 0 -1
    outer loop
      vertex 4.25556 1.94114 -49
      vertex 1.94114 4.25556 -49
      vertex 3.75 5.00481 -49
    endloop
  endfacet
  facet normal 0 0 -1
    outer loop
      vertex 0.927051 2.85317 -49
      vertex 1.94114 4.25556 -49
      vertex 2.42705 1.76336 -49
    endloop
  endfacet
  facet normal 0 0 -1
    outer loop
      vertex 0.927051 2.85317 -49
      vertex 0 4 -49
      vertex 1.94114 4.25556 -49
    endloop
  endfacet
  facet normal 0 0 -1
    outer loop
      vertex -0.927051 2.85317 -49
      vertex 0 4 -49
      vertex 0.927051 2.85317 -49
    endloop
  endfacet
  facet normal 0 0 -1
    outer loop
      vertex -0.927051 2.85317 -49
      vertex -1.94114 4.25556 -49
      vertex 0 4 -49
    endloop
  endfacet
  facet normal 0 0 -1
    outer loop
      vertex -2.42705 1.76336 -49
      vertex -1.94114 4.25556 -49
      vertex -0.927051 2.85317 -49
    endloop
  endfacet
  facet normal 0 0 -1
    outer loop
      vertex -4.25556 1.94114 -49
      vertex -3 0 -49
      vertex -4 0 -49
    endloop
  endfacet
  facet normal 0 0 -1
    outer loop
      vertex -3 0 -49
      vertex -4.25556 1.94114 -49
      vertex -2.42705 1.76336 -49
    endloop
  endfacet
  facet normal -0 0 -1
    outer loop
      vertex -2.42705 -1.76336 -49
      vertex -4.25556 -1.94114 -49
      vertex -3 0 -49
    endloop
  endfacet
  facet normal 0 0 -1
    outer loop
      vertex -4.25556 1.94114 -49
      vertex -1.94114 4.25556 -49
      vertex -2.42705 1.76336 -49
    endloop
  endfacet
  facet normal -0 0 -1
    outer loop
      vertex -3 0 -49
      vertex -4.25556 -1.94114 -49
      vertex -4 0 -49
    endloop
  endfacet
  facet normal 0 0 -1
    outer loop
      vertex -3.75 -5.00481 -49
      vertex -5.00481 -3.75 -49
      vertex -4.25556 -1.94114 -49
    endloop
  endfacet
  facet normal 0 0 -1
    outer loop
      vertex -5.3033 -6.1967 -49
      vertex -5.00481 -3.75 -49
      vertex -3.75 -5.00481 -49
    endloop
  endfacet
  facet normal 0 0 -1
    outer loop
      vertex -5.3033 -6.1967 -49
      vertex -6.1967 -5.3033 -49
      vertex -5.00481 -3.75 -49
    endloop
  endfacet
  facet normal 0 0 -1
    outer loop
      vertex -6.49519 -7.75 -49
      vertex -6.1967 -5.3033 -49
      vertex -5.3033 -6.1967 -49
    endloop
  endfacet
  facet normal 0 0 -1
    outer loop
      vertex -7.75 -6.49519 -49
      vertex -6.49519 -7.75 -49
      vertex -7.24444 -9.55886 -49
    endloop
  endfacet
  facet normal 0 0 -1
    outer loop
      vertex -6.49519 -7.75 -49
      vertex -7.75 -6.49519 -49
      vertex -6.1967 -5.3033 -49
    endloop
  endfacet
  facet normal 0 0 -1
    outer loop
      vertex -7.75 -6.49519 -49
      vertex -7.24444 -9.55886 -49
      vertex -7.5 -11.5 -49
    endloop
  endfacet
  facet normal 0.866028 -0.499995 0
    outer loop
      vertex 14.1578 -10.2862 49
      vertex 15.987 -7.11789 -49
      vertex 15.987 -7.11789 49
    endloop
  endfacet
  facet normal 0.866028 -0.499995 0
    outer loop
      vertex 15.987 -7.11789 -49
      vertex 14.1578 -10.2862 49
      vertex 14.1578 -10.2862 -49
    endloop
  endfacet
  facet normal -0.866028 -0.499995 0
    outer loop
      vertex -14.1578 -10.2862 -49
      vertex -15.987 -7.11789 49
      vertex -15.987 -7.11789 -49
    endloop
  endfacet
  facet normal -0.866028 -0.499995 0
    outer loop
      vertex -15.987 -7.11789 49
      vertex -14.1578 -10.2862 -49
      vertex -14.1578 -10.2862 49
    endloop
  endfacet
  facet normal -0.743147 -0.669128 0
    outer loop
      vertex -11.7098 -13.005 -49
      vertex -14.1578 -10.2862 49
      vertex -14.1578 -10.2862 -49
    endloop
  endfacet
  facet normal -0.743147 -0.669128 0
    outer loop
      vertex -14.1578 -10.2862 49
      vertex -11.7098 -13.005 -49
      vertex -11.7098 -13.005 49
    endloop
  endfacet
  facet normal 0.587782 -0.80902 0
    outer loop
      vertex 8.75 -15.1554 -49
      vertex 11.7098 -13.005 49
      vertex 8.75 -15.1554 49
    endloop
  endfacet
  facet normal 0.587782 -0.80902 0
    outer loop
      vertex 11.7098 -13.005 49
      vertex 8.75 -15.1554 -49
      vertex 11.7098 -13.005 -49
    endloop
  endfacet
  facet normal 0.406741 -0.913544 0
    outer loop
      vertex 5.43534 -16.6312 -49
      vertex 8.75 -15.1554 49
      vertex 5.43534 -16.6312 49
    endloop
  endfacet
  facet normal 0.406741 -0.913544 0
    outer loop
      vertex 8.75 -15.1554 49
      vertex 5.43534 -16.6312 -49
      vertex 8.75 -15.1554 -49
    endloop
  endfacet
  facet normal -0.951042 -0.309063 0
    outer loop
      vertex -15.987 -7.11789 -49
      vertex -16.5014 -5.53499 49
      vertex -16.5014 -5.53499 -49
    endloop
  endfacet
  facet normal -0.951042 -0.309063 0
    outer loop
      vertex -16.5014 -5.53499 49
      vertex -15.987 -7.11789 -49
      vertex -15.987 -7.11789 49
    endloop
  endfacet
  facet normal 0.743147 -0.669128 0
    outer loop
      vertex 11.7098 -13.005 49
      vertex 14.1578 -10.2862 -49
      vertex 14.1578 -10.2862 49
    endloop
  endfacet
  facet normal 0.743147 -0.669128 0
    outer loop
      vertex 14.1578 -10.2862 -49
      vertex 11.7098 -13.005 49
      vertex 11.7098 -13.005 -49
    endloop
  endfacet
  facet normal -0.406741 -0.913544 0
    outer loop
      vertex -8.75 -15.1554 -49
      vertex -5.43534 -16.6312 49
      vertex -8.75 -15.1554 49
    endloop
  endfacet
  facet normal -0.406741 -0.913544 -0
    outer loop
      vertex -5.43534 -16.6312 49
      vertex -8.75 -15.1554 -49
      vertex -5.43534 -16.6312 -49
    endloop
  endfacet
  facet normal -0.587782 -0.80902 0
    outer loop
      vertex -11.7098 -13.005 -49
      vertex -8.75 -15.1554 49
      vertex -11.7098 -13.005 49
    endloop
  endfacet
  facet normal -0.587782 -0.80902 -0
    outer loop
      vertex -8.75 -15.1554 49
      vertex -11.7098 -13.005 -49
      vertex -8.75 -15.1554 -49
    endloop
  endfacet
  facet normal 0.130528 -0.991445 0
    outer loop
      vertex 9.55886 7.24444 -49
      vertex 11.5 7.5 49
      vertex 9.55886 7.24444 49
    endloop
  endfacet
  facet normal 0.130528 -0.991445 0
    outer loop
      vertex 11.5 7.5 49
      vertex 9.55886 7.24444 -49
      vertex 11.5 7.5 -49
    endloop
  endfacet
  facet normal -0.608748 -0.793363 0
    outer loop
      vertex 15.25 6.49519 -49
      vertex 16.5014 5.53499 49
      vertex 15.25 6.49519 49
    endloop
  endfacet
  facet normal -0.608748 -0.793363 -0
    outer loop
      vertex 16.5014 5.53499 49
      vertex 15.25 6.49519 -49
      vertex 16.5014 5.53499 -49
    endloop
  endfacet
  facet normal -0.130531 -0.991444 0
    outer loop
      vertex 11.5 7.5 -49
      vertex 13.4411 7.24444 49
      vertex 11.5 7.5 49
    endloop
  endfacet
  facet normal -0.130531 -0.991444 -0
    outer loop
      vertex 13.4411 7.24444 49
      vertex 11.5 7.5 -49
      vertex 13.4411 7.24444 -49
    endloop
  endfacet
  facet normal 0.608762 -0.793353 0
    outer loop
      vertex 6.1967 5.3033 -49
      vertex 7.75 6.49519 49
      vertex 6.1967 5.3033 49
    endloop
  endfacet
  facet normal 0.608762 -0.793353 0
    outer loop
      vertex 7.75 6.49519 49
      vertex 6.1967 5.3033 -49
      vertex 7.75 6.49519 -49
    endloop
  endfacet
  facet normal 0.92388 -0.382682 0
    outer loop
      vertex 4.25556 1.94114 49
      vertex 5.00481 3.75 -49
      vertex 5.00481 3.75 49
    endloop
  endfacet
  facet normal 0.92388 -0.382682 0
    outer loop
      vertex 5.00481 3.75 -49
      vertex 4.25556 1.94114 49
      vertex 4.25556 1.94114 -49
    endloop
  endfacet
  facet normal 0.793353 -0.608762 0
    outer loop
      vertex 5.00481 3.75 49
      vertex 6.1967 5.3033 -49
      vertex 6.1967 5.3033 49
    endloop
  endfacet
  facet normal 0.793353 -0.608762 0
    outer loop
      vertex 6.1967 5.3033 -49
      vertex 5.00481 3.75 49
      vertex 5.00481 3.75 -49
    endloop
  endfacet
  facet normal -0.382674 -0.923883 0
    outer loop
      vertex 13.4411 7.24444 -49
      vertex 15.25 6.49519 49
      vertex 13.4411 7.24444 49
    endloop
  endfacet
  facet normal -0.382674 -0.923883 -0
    outer loop
      vertex 15.25 6.49519 49
      vertex 13.4411 7.24444 -49
      vertex 15.25 6.49519 -49
    endloop
  endfacet
  facet normal 0.991445 0.130528 0
    outer loop
      vertex 4.25556 -1.94114 49
      vertex 4 0 -49
      vertex 4 0 49
    endloop
  endfacet
  facet normal 0.991445 0.130528 0
    outer loop
      vertex 4 0 -49
      vertex 4.25556 -1.94114 49
      vertex 4.25556 -1.94114 -49
    endloop
  endfacet
  facet normal 0.382682 -0.92388 0
    outer loop
      vertex 7.75 6.49519 -49
      vertex 9.55886 7.24444 49
      vertex 7.75 6.49519 49
    endloop
  endfacet
  facet normal 0.382682 -0.92388 0
    outer loop
      vertex 9.55886 7.24444 49
      vertex 7.75 6.49519 -49
      vertex 9.55886 7.24444 -49
    endloop
  endfacet
  facet normal 0.92388 0.382682 0
    outer loop
      vertex 5.00481 -3.75 49
      vertex 4.25556 -1.94114 -49
      vertex 4.25556 -1.94114 49
    endloop
  endfacet
  facet normal 0.92388 0.382682 0
    outer loop
      vertex 4.25556 -1.94114 -49
      vertex 5.00481 -3.75 49
      vertex 5.00481 -3.75 -49
    endloop
  endfacet
  facet normal 0.991445 -0.130528 0
    outer loop
      vertex 4 0 49
      vertex 4.25556 1.94114 -49
      vertex 4.25556 1.94114 49
    endloop
  endfacet
  facet normal 0.991445 -0.130528 0
    outer loop
      vertex 4.25556 1.94114 -49
      vertex 4 0 49
      vertex 4 0 -49
    endloop
  endfacet
  facet normal 0.608762 0.793353 -0
    outer loop
      vertex 7.75 -6.49519 -49
      vertex 6.1967 -5.3033 49
      vertex 7.75 -6.49519 49
    endloop
  endfacet
  facet normal 0.608762 0.793353 0
    outer loop
      vertex 6.1967 -5.3033 49
      vertex 7.75 -6.49519 -49
      vertex 6.1967 -5.3033 -49
    endloop
  endfacet
  facet normal -0.130531 0.991444 0
    outer loop
      vertex 13.4411 -7.24444 -49
      vertex 11.5 -7.5 49
      vertex 13.4411 -7.24444 49
    endloop
  endfacet
  facet normal -0.130531 0.991444 0
    outer loop
      vertex 11.5 -7.5 49
      vertex 13.4411 -7.24444 -49
      vertex 11.5 -7.5 -49
    endloop
  endfacet
  facet normal -0.382674 0.923883 0
    outer loop
      vertex 15.25 -6.49519 -49
      vertex 13.4411 -7.24444 49
      vertex 15.25 -6.49519 49
    endloop
  endfacet
  facet normal -0.382674 0.923883 0
    outer loop
      vertex 13.4411 -7.24444 49
      vertex 15.25 -6.49519 -49
      vertex 13.4411 -7.24444 -49
    endloop
  endfacet
  facet normal -0.608748 0.793363 0
    outer loop
      vertex 16.5014 -5.53499 -49
      vertex 15.25 -6.49519 49
      vertex 16.5014 -5.53499 49
    endloop
  endfacet
  facet normal -0.608748 0.793363 0
    outer loop
      vertex 15.25 -6.49519 49
      vertex 16.5014 -5.53499 -49
      vertex 15.25 -6.49519 -49
    endloop
  endfacet
  facet normal 0.793353 0.608762 0
    outer loop
      vertex 6.1967 -5.3033 49
      vertex 5.00481 -3.75 -49
      vertex 5.00481 -3.75 49
    endloop
  endfacet
  facet normal 0.793353 0.608762 0
    outer loop
      vertex 5.00481 -3.75 -49
      vertex 6.1967 -5.3033 49
      vertex 6.1967 -5.3033 -49
    endloop
  endfacet
  facet normal 0.130528 0.991445 -0
    outer loop
      vertex 11.5 -7.5 -49
      vertex 9.55886 -7.24444 49
      vertex 11.5 -7.5 49
    endloop
  endfacet
  facet normal 0.130528 0.991445 0
    outer loop
      vertex 9.55886 -7.24444 49
      vertex 11.5 -7.5 -49
      vertex 9.55886 -7.24444 -49
    endloop
  endfacet
  facet normal 0.382682 0.92388 -0
    outer loop
      vertex 9.55886 -7.24444 -49
      vertex 7.75 -6.49519 49
      vertex 9.55886 -7.24444 49
    endloop
  endfacet
  facet normal 0.382682 0.92388 0
    outer loop
      vertex 7.75 -6.49519 49
      vertex 9.55886 -7.24444 -49
      vertex 7.75 -6.49519 -49
    endloop
  endfacet
  facet normal -0.991445 -0.130528 0
    outer loop
      vertex -4 0 -49
      vertex -4.25556 1.94114 49
      vertex -4.25556 1.94114 -49
    endloop
  endfacet
  facet normal -0.991445 -0.130528 0
    outer loop
      vertex -4.25556 1.94114 49
      vertex -4 0 -49
      vertex -4 0 49
    endloop
  endfacet
  facet normal -0.130528 -0.991445 0
    outer loop
      vertex -11.5 7.5 -49
      vertex -9.55886 7.24444 49
      vertex -11.5 7.5 49
    endloop
  endfacet
  facet normal -0.130528 -0.991445 -0
    outer loop
      vertex -9.55886 7.24444 49
      vertex -11.5 7.5 -49
      vertex -9.55886 7.24444 -49
    endloop
  endfacet
  facet normal -0.793353 -0.608762 0
    outer loop
      vertex -5.00481 3.75 -49
      vertex -6.1967 5.3033 49
      vertex -6.1967 5.3033 -49
    endloop
  endfacet
  facet normal -0.793353 -0.608762 0
    outer loop
      vertex -6.1967 5.3033 49
      vertex -5.00481 3.75 -49
      vertex -5.00481 3.75 49
    endloop
  endfacet
  facet normal -0.92388 -0.382682 0
    outer loop
      vertex -4.25556 1.94114 -49
      vertex -5.00481 3.75 49
      vertex -5.00481 3.75 -49
    endloop
  endfacet
  facet normal -0.92388 -0.382682 0
    outer loop
      vertex -5.00481 3.75 49
      vertex -4.25556 1.94114 -49
      vertex -4.25556 1.94114 49
    endloop
  endfacet
  facet normal 0.608748 -0.793363 0
    outer loop
      vertex -16.5014 5.53499 -49
      vertex -15.25 6.49519 49
      vertex -16.5014 5.53499 49
    endloop
  endfacet
  facet normal 0.608748 -0.793363 0
    outer loop
      vertex -15.25 6.49519 49
      vertex -16.5014 5.53499 -49
      vertex -15.25 6.49519 -49
    endloop
  endfacet
  facet normal 0.382674 -0.923883 0
    outer loop
      vertex -15.25 6.49519 -49
      vertex -13.4411 7.24444 49
      vertex -15.25 6.49519 49
    endloop
  endfacet
  facet normal 0.382674 -0.923883 0
    outer loop
      vertex -13.4411 7.24444 49
      vertex -15.25 6.49519 -49
      vertex -13.4411 7.24444 -49
    endloop
  endfacet
  facet normal -0.608762 0.793353 0
    outer loop
      vertex -6.1967 -5.3033 -49
      vertex -7.75 -6.49519 49
      vertex -6.1967 -5.3033 49
    endloop
  endfacet
  facet normal -0.608762 0.793353 0
    outer loop
      vertex -7.75 -6.49519 49
      vertex -6.1967 -5.3033 -49
      vertex -7.75 -6.49519 -49
    endloop
  endfacet
  facet normal -0.130528 0.991445 0
    outer loop
      vertex -9.55886 -7.24444 -49
      vertex -11.5 -7.5 49
      vertex -9.55886 -7.24444 49
    endloop
  endfacet
  facet normal -0.130528 0.991445 0
    outer loop
      vertex -11.5 -7.5 49
      vertex -9.55886 -7.24444 -49
      vertex -11.5 -7.5 -49
    endloop
  endfacet
  facet normal -0.793353 0.608762 0
    outer loop
      vertex -6.1967 -5.3033 -49
      vertex -5.00481 -3.75 49
      vertex -5.00481 -3.75 -49
    endloop
  endfacet
  facet normal -0.793353 0.608762 0
    outer loop
      vertex -5.00481 -3.75 49
      vertex -6.1967 -5.3033 -49
      vertex -6.1967 -5.3033 49
    endloop
  endfacet
  facet normal 0.608748 0.793363 -0
    outer loop
      vertex -15.25 -6.49519 -49
      vertex -16.5014 -5.53499 49
      vertex -15.25 -6.49519 49
    endloop
  endfacet
  facet normal 0.608748 0.793363 0
    outer loop
      vertex -16.5014 -5.53499 49
      vertex -15.25 -6.49519 -49
      vertex -16.5014 -5.53499 -49
    endloop
  endfacet
  facet normal -0.382682 -0.92388 0
    outer loop
      vertex -9.55886 7.24444 -49
      vertex -7.75 6.49519 49
      vertex -9.55886 7.24444 49
    endloop
  endfacet
  facet normal -0.382682 -0.92388 -0
    outer loop
      vertex -7.75 6.49519 49
      vertex -9.55886 7.24444 -49
      vertex -7.75 6.49519 -49
    endloop
  endfacet
  facet normal -0.608762 -0.793353 0
    outer loop
      vertex -7.75 6.49519 -49
      vertex -6.1967 5.3033 49
      vertex -7.75 6.49519 49
    endloop
  endfacet
  facet normal -0.608762 -0.793353 -0
    outer loop
      vertex -6.1967 5.3033 49
      vertex -7.75 6.49519 -49
      vertex -6.1967 5.3033 -49
    endloop
  endfacet
  facet normal 0.130531 -0.991444 0
    outer loop
      vertex -13.4411 7.24444 -49
      vertex -11.5 7.5 49
      vertex -13.4411 7.24444 49
    endloop
  endfacet
  facet normal 0.130531 -0.991444 0
    outer loop
      vertex -11.5 7.5 49
      vertex -13.4411 7.24444 -49
      vertex -11.5 7.5 -49
    endloop
  endfacet
  facet normal -0.382682 0.92388 0
    outer loop
      vertex -7.75 -6.49519 -49
      vertex -9.55886 -7.24444 49
      vertex -7.75 -6.49519 49
    endloop
  endfacet
  facet normal -0.382682 0.92388 0
    outer loop
      vertex -9.55886 -7.24444 49
      vertex -7.75 -6.49519 -49
      vertex -9.55886 -7.24444 -49
    endloop
  endfacet
  facet normal 0.382674 0.923883 -0
    outer loop
      vertex -13.4411 -7.24444 -49
      vertex -15.25 -6.49519 49
      vertex -13.4411 -7.24444 49
    endloop
  endfacet
  facet normal 0.382674 0.923883 0
    outer loop
      vertex -15.25 -6.49519 49
      vertex -13.4411 -7.24444 -49
      vertex -15.25 -6.49519 -49
    endloop
  endfacet
  facet normal -0.92388 0.382682 0
    outer loop
      vertex -5.00481 -3.75 -49
      vertex -4.25556 -1.94114 49
      vertex -4.25556 -1.94114 -49
    endloop
  endfacet
  facet normal -0.92388 0.382682 0
    outer loop
      vertex -4.25556 -1.94114 49
      vertex -5.00481 -3.75 -49
      vertex -5.00481 -3.75 49
    endloop
  endfacet
  facet normal -0.991445 0.130528 0
    outer loop
      vertex -4.25556 -1.94114 -49
      vertex -4 0 49
      vertex -4 0 -49
    endloop
  endfacet
  facet normal -0.991445 0.130528 0
    outer loop
      vertex -4 0 49
      vertex -4.25556 -1.94114 -49
      vertex -4.25556 -1.94114 49
    endloop
  endfacet
  facet normal 0.130531 0.991444 -0
    outer loop
      vertex -11.5 -7.5 -49
      vertex -13.4411 -7.24444 49
      vertex -11.5 -7.5 49
    endloop
  endfacet
  facet normal 0.130531 0.991444 0
    outer loop
      vertex -13.4411 -7.24444 49
      vertex -11.5 -7.5 -49
      vertex -13.4411 -7.24444 -49
    endloop
  endfacet
  facet normal -0.991444 -0.130531 0
    outer loop
      vertex 7.5 11.5 -49
      vertex 7.24444 13.4411 49
      vertex 7.24444 13.4411 -49
    endloop
  endfacet
  facet normal -0.991444 -0.130531 0
    outer loop
      vertex 7.24444 13.4411 49
      vertex 7.5 11.5 -49
      vertex 7.5 11.5 49
    endloop
  endfacet
  facet normal -0.130528 0.991445 0
    outer loop
      vertex 1.94114 4.25556 -49
      vertex 0 4 49
      vertex 1.94114 4.25556 49
    endloop
  endfacet
  facet normal -0.130528 0.991445 0
    outer loop
      vertex 0 4 49
      vertex 1.94114 4.25556 -49
      vertex 0 4 -49
    endloop
  endfacet
  facet normal 0.793348 -0.608768 0
    outer loop
      vertex -6.49519 15.25 49
      vertex -5.43534 16.6312 -49
      vertex -5.43534 16.6312 49
    endloop
  endfacet
  facet normal 0.793348 -0.608768 0
    outer loop
      vertex -5.43534 16.6312 -49
      vertex -6.49519 15.25 49
      vertex -6.49519 15.25 -49
    endloop
  endfacet
  facet normal -0.793353 0.608762 0
    outer loop
      vertex 5.3033 6.1967 -49
      vertex 6.49519 7.75 49
      vertex 6.49519 7.75 -49
    endloop
  endfacet
  facet normal -0.793353 0.608762 0
    outer loop
      vertex 6.49519 7.75 49
      vertex 5.3033 6.1967 -49
      vertex 5.3033 6.1967 49
    endloop
  endfacet
  facet normal 0.382682 0.92388 -0
    outer loop
      vertex -1.94114 4.25556 -49
      vertex -3.75 5.00481 49
      vertex -1.94114 4.25556 49
    endloop
  endfacet
  facet normal 0.382682 0.92388 0
    outer loop
      vertex -3.75 5.00481 49
      vertex -1.94114 4.25556 -49
      vertex -3.75 5.00481 -49
    endloop
  endfacet
  facet normal -0.793348 -0.608768 0
    outer loop
      vertex 6.49519 15.25 -49
      vertex 5.43534 16.6312 49
      vertex 5.43534 16.6312 -49
    endloop
  endfacet
  facet normal -0.793348 -0.608768 0
    outer loop
      vertex 5.43534 16.6312 49
      vertex 6.49519 15.25 -49
      vertex 6.49519 15.25 49
    endloop
  endfacet
  facet normal -0.923883 -0.382674 0
    outer loop
      vertex 7.24444 13.4411 -49
      vertex 6.49519 15.25 49
      vertex 6.49519 15.25 -49
    endloop
  endfacet
  facet normal -0.923883 -0.382674 0
    outer loop
      vertex 6.49519 15.25 49
      vertex 7.24444 13.4411 -49
      vertex 7.24444 13.4411 49
    endloop
  endfacet
  facet normal 0.923883 -0.382674 0
    outer loop
      vertex -7.24444 13.4411 49
      vertex -6.49519 15.25 -49
      vertex -6.49519 15.25 49
    endloop
  endfacet
  facet normal 0.923883 -0.382674 0
    outer loop
      vertex -6.49519 15.25 -49
      vertex -7.24444 13.4411 49
      vertex -7.24444 13.4411 -49
    endloop
  endfacet
  facet normal 0.991444 -0.130531 0
    outer loop
      vertex -7.5 11.5 49
      vertex -7.24444 13.4411 -49
      vertex -7.24444 13.4411 49
    endloop
  endfacet
  facet normal 0.991444 -0.130531 0
    outer loop
      vertex -7.24444 13.4411 -49
      vertex -7.5 11.5 49
      vertex -7.5 11.5 -49
    endloop
  endfacet
  facet normal 0.991445 0.130528 0
    outer loop
      vertex -7.24444 9.55886 49
      vertex -7.5 11.5 -49
      vertex -7.5 11.5 49
    endloop
  endfacet
  facet normal 0.991445 0.130528 0
    outer loop
      vertex -7.5 11.5 -49
      vertex -7.24444 9.55886 49
      vertex -7.24444 9.55886 -49
    endloop
  endfacet
  facet normal -0.991445 0.130528 0
    outer loop
      vertex 7.24444 9.55886 -49
      vertex 7.5 11.5 49
      vertex 7.5 11.5 -49
    endloop
  endfacet
  facet normal -0.991445 0.130528 0
    outer loop
      vertex 7.5 11.5 49
      vertex 7.24444 9.55886 -49
      vertex 7.24444 9.55886 49
    endloop
  endfacet
  facet normal -0.382682 0.92388 0
    outer loop
      vertex 3.75 5.00481 -49
      vertex 1.94114 4.25556 49
      vertex 3.75 5.00481 49
    endloop
  endfacet
  facet normal -0.382682 0.92388 0
    outer loop
      vertex 1.94114 4.25556 49
      vertex 3.75 5.00481 -49
      vertex 1.94114 4.25556 -49
    endloop
  endfacet
  facet normal 0.130528 0.991445 -0
    outer loop
      vertex 0 4 -49
      vertex -1.94114 4.25556 49
      vertex 0 4 49
    endloop
  endfacet
  facet normal 0.130528 0.991445 0
    outer loop
      vertex -1.94114 4.25556 49
      vertex 0 4 -49
      vertex -1.94114 4.25556 -49
    endloop
  endfacet
  facet normal 0.608762 0.793353 -0
    outer loop
      vertex -3.75 5.00481 -49
      vertex -5.3033 6.1967 49
      vertex -3.75 5.00481 49
    endloop
  endfacet
  facet normal 0.608762 0.793353 0
    outer loop
      vertex -5.3033 6.1967 49
      vertex -3.75 5.00481 -49
      vertex -5.3033 6.1967 -49
    endloop
  endfacet
  facet normal 0.92388 0.382682 0
    outer loop
      vertex -6.49519 7.75 49
      vertex -7.24444 9.55886 -49
      vertex -7.24444 9.55886 49
    endloop
  endfacet
  facet normal 0.92388 0.382682 0
    outer loop
      vertex -7.24444 9.55886 -49
      vertex -6.49519 7.75 49
      vertex -6.49519 7.75 -49
    endloop
  endfacet
  facet normal -0.92388 0.382682 0
    outer loop
      vertex 6.49519 7.75 -49
      vertex 7.24444 9.55886 49
      vertex 7.24444 9.55886 -49
    endloop
  endfacet
  facet normal -0.92388 0.382682 0
    outer loop
      vertex 7.24444 9.55886 49
      vertex 6.49519 7.75 -49
      vertex 6.49519 7.75 49
    endloop
  endfacet
  facet normal -0.608762 0.793353 0
    outer loop
      vertex 5.3033 6.1967 -49
      vertex 3.75 5.00481 49
      vertex 5.3033 6.1967 49
    endloop
  endfacet
  facet normal -0.608762 0.793353 0
    outer loop
      vertex 3.75 5.00481 49
      vertex 5.3033 6.1967 -49
      vertex 3.75 5.00481 -49
    endloop
  endfacet
  facet normal 0.793353 0.608762 0
    outer loop
      vertex -5.3033 6.1967 49
      vertex -6.49519 7.75 -49
      vertex -6.49519 7.75 49
    endloop
  endfacet
  facet normal 0.793353 0.608762 0
    outer loop
      vertex -6.49519 7.75 -49
      vertex -5.3033 6.1967 49
      vertex -5.3033 6.1967 -49
    endloop
  endfacet
  facet normal -0.991445 -0.130528 0
    outer loop
      vertex 7.5 -11.5 -49
      vertex 7.24444 -9.55886 49
      vertex 7.24444 -9.55886 -49
    endloop
  endfacet
  facet normal -0.991445 -0.130528 0
    outer loop
      vertex 7.24444 -9.55886 49
      vertex 7.5 -11.5 -49
      vertex 7.5 -11.5 49
    endloop
  endfacet
  facet normal 0.991445 -0.130528 0
    outer loop
      vertex -7.5 -11.5 49
      vertex -7.24444 -9.55886 -49
      vertex -7.24444 -9.55886 49
    endloop
  endfacet
  facet normal 0.991445 -0.130528 0
    outer loop
      vertex -7.24444 -9.55886 -49
      vertex -7.5 -11.5 49
      vertex -7.5 -11.5 -49
    endloop
  endfacet
  facet normal 0.130528 -0.991445 0
    outer loop
      vertex -1.94114 -4.25556 -49
      vertex 0 -4 49
      vertex -1.94114 -4.25556 49
    endloop
  endfacet
  facet normal 0.130528 -0.991445 0
    outer loop
      vertex 0 -4 49
      vertex -1.94114 -4.25556 -49
      vertex 0 -4 -49
    endloop
  endfacet
  facet normal -0.608762 -0.793353 0
    outer loop
      vertex 3.75 -5.00481 -49
      vertex 5.3033 -6.1967 49
      vertex 3.75 -5.00481 49
    endloop
  endfacet
  facet normal -0.608762 -0.793353 -0
    outer loop
      vertex 5.3033 -6.1967 49
      vertex 3.75 -5.00481 -49
      vertex 5.3033 -6.1967 -49
    endloop
  endfacet
  facet normal -0.382682 -0.92388 0
    outer loop
      vertex 1.94114 -4.25556 -49
      vertex 3.75 -5.00481 49
      vertex 1.94114 -4.25556 49
    endloop
  endfacet
  facet normal -0.382682 -0.92388 -0
    outer loop
      vertex 3.75 -5.00481 49
      vertex 1.94114 -4.25556 -49
      vertex 3.75 -5.00481 -49
    endloop
  endfacet
  facet normal 0.608762 -0.793353 0
    outer loop
      vertex -5.3033 -6.1967 -49
      vertex -3.75 -5.00481 49
      vertex -5.3033 -6.1967 49
    endloop
  endfacet
  facet normal 0.608762 -0.793353 0
    outer loop
      vertex -3.75 -5.00481 49
      vertex -5.3033 -6.1967 -49
      vertex -3.75 -5.00481 -49
    endloop
  endfacet
  facet normal 0.382682 -0.92388 0
    outer loop
      vertex -3.75 -5.00481 -49
      vertex -1.94114 -4.25556 49
      vertex -3.75 -5.00481 49
    endloop
  endfacet
  facet normal 0.382682 -0.92388 0
    outer loop
      vertex -1.94114 -4.25556 49
      vertex -3.75 -5.00481 -49
      vertex -1.94114 -4.25556 -49
    endloop
  endfacet
  facet normal -0.793348 0.608768 0
    outer loop
      vertex 5.43534 -16.6312 -49
      vertex 6.49519 -15.25 49
      vertex 6.49519 -15.25 -49
    endloop
  endfacet
  facet normal -0.793348 0.608768 0
    outer loop
      vertex 6.49519 -15.25 49
      vertex 5.43534 -16.6312 -49
      vertex 5.43534 -16.6312 49
    endloop
  endfacet
  facet normal -0.793353 -0.608762 0
    outer loop
      vertex 6.49519 -7.75 -49
      vertex 5.3033 -6.1967 49
      vertex 5.3033 -6.1967 -49
    endloop
  endfacet
  facet normal -0.793353 -0.608762 0
    outer loop
      vertex 5.3033 -6.1967 49
      vertex 6.49519 -7.75 -49
      vertex 6.49519 -7.75 49
    endloop
  endfacet
  facet normal -0.92388 -0.382682 0
    outer loop
      vertex 7.24444 -9.55886 -49
      vertex 6.49519 -7.75 49
      vertex 6.49519 -7.75 -49
    endloop
  endfacet
  facet normal -0.92388 -0.382682 0
    outer loop
      vertex 6.49519 -7.75 49
      vertex 7.24444 -9.55886 -49
      vertex 7.24444 -9.55886 49
    endloop
  endfacet
  facet normal -0.130528 -0.991445 0
    outer loop
      vertex 0 -4 -49
      vertex 1.94114 -4.25556 49
      vertex 0 -4 49
    endloop
  endfacet
  facet normal -0.130528 -0.991445 -0
    outer loop
      vertex 1.94114 -4.25556 49
      vertex 0 -4 -49
      vertex 1.94114 -4.25556 -49
    endloop
  endfacet
  facet normal 0.793353 -0.608762 0
    outer loop
      vertex -6.49519 -7.75 49
      vertex -5.3033 -6.1967 -49
      vertex -5.3033 -6.1967 49
    endloop
  endfacet
  facet normal 0.793353 -0.608762 0
    outer loop
      vertex -5.3033 -6.1967 -49
      vertex -6.49519 -7.75 49
      vertex -6.49519 -7.75 -49
    endloop
  endfacet
  facet normal 0.92388 -0.382682 0
    outer loop
      vertex -7.24444 -9.55886 49
      vertex -6.49519 -7.75 -49
      vertex -6.49519 -7.75 49
    endloop
  endfacet
  facet normal 0.92388 -0.382682 0
    outer loop
      vertex -6.49519 -7.75 -49
      vertex -7.24444 -9.55886 49
      vertex -7.24444 -9.55886 -49
    endloop
  endfacet
  facet normal -0.991444 0.130531 0
    outer loop
      vertex 7.24444 -13.4411 -49
      vertex 7.5 -11.5 49
      vertex 7.5 -11.5 -49
    endloop
  endfacet
  facet normal -0.991444 0.130531 0
    outer loop
      vertex 7.5 -11.5 49
      vertex 7.24444 -13.4411 -49
      vertex 7.24444 -13.4411 49
    endloop
  endfacet
  facet normal 0.793348 0.608768 0
    outer loop
      vertex -5.43534 -16.6312 49
      vertex -6.49519 -15.25 -49
      vertex -6.49519 -15.25 49
    endloop
  endfacet
  facet normal 0.793348 0.608768 0
    outer loop
      vertex -6.49519 -15.25 -49
      vertex -5.43534 -16.6312 49
      vertex -5.43534 -16.6312 -49
    endloop
  endfacet
  facet normal 0.991444 0.130531 0
    outer loop
      vertex -7.24444 -13.4411 49
      vertex -7.5 -11.5 -49
      vertex -7.5 -11.5 49
    endloop
  endfacet
  facet normal 0.991444 0.130531 0
    outer loop
      vertex -7.5 -11.5 -49
      vertex -7.24444 -13.4411 49
      vertex -7.24444 -13.4411 -49
    endloop
  endfacet
  facet normal -0.923883 0.382674 0
    outer loop
      vertex 6.49519 -15.25 -49
      vertex 7.24444 -13.4411 49
      vertex 7.24444 -13.4411 -49
    endloop
  endfacet
  facet normal -0.923883 0.382674 0
    outer loop
      vertex 7.24444 -13.4411 49
      vertex 6.49519 -15.25 -49
      vertex 6.49519 -15.25 49
    endloop
  endfacet
  facet normal 0.923883 0.382674 0
    outer loop
      vertex -6.49519 -15.25 49
      vertex -7.24444 -13.4411 -49
      vertex -7.24444 -13.4411 49
    endloop
  endfacet
  facet normal 0.923883 0.382674 0
    outer loop
      vertex -7.24444 -13.4411 -49
      vertex -6.49519 -15.25 49
      vertex -6.49519 -15.25 -49
    endloop
  endfacet
  facet normal -0.951057 -0.309017 0
    outer loop
      vertex 3 0 -49
      vertex 2.42705 1.76336 49
      vertex 2.42705 1.76336 -49
    endloop
  endfacet
  facet normal -0.951057 -0.309017 0
    outer loop
      vertex 2.42705 1.76336 49
      vertex 3 0 -49
      vertex 3 0 49
    endloop
  endfacet
  facet normal 0.951057 -0.309017 0
    outer loop
      vertex -3 0 49
      vertex -2.42705 1.76336 -49
      vertex -2.42705 1.76336 49
    endloop
  endfacet
  facet normal 0.951057 -0.309017 0
    outer loop
      vertex -2.42705 1.76336 -49
      vertex -3 0 49
      vertex -3 0 -49
    endloop
  endfacet
  facet normal 0 1 -0
    outer loop
      vertex 0.927051 -2.85317 -49
      vertex -0.927051 -2.85317 49
      vertex 0.927051 -2.85317 49
    endloop
  endfacet
  facet normal 0 1 0
    outer loop
      vertex -0.927051 -2.85317 49
      vertex 0.927051 -2.85317 -49
      vertex -0.927051 -2.85317 -49
    endloop
  endfacet
  facet normal 0 -1 0
    outer loop
      vertex -0.927051 2.85317 -49
      vertex 0.927051 2.85317 49
      vertex -0.927051 2.85317 49
    endloop
  endfacet
  facet normal 0 -1 -0
    outer loop
      vertex 0.927051 2.85317 49
      vertex -0.927051 2.85317 -49
      vertex 0.927051 2.85317 -49
    endloop
  endfacet
  facet normal -0.587784 -0.809018 0
    outer loop
      vertex 0.927051 2.85317 -49
      vertex 2.42705 1.76336 49
      vertex 0.927051 2.85317 49
    endloop
  endfacet
  facet normal -0.587784 -0.809018 -0
    outer loop
      vertex 2.42705 1.76336 49
      vertex 0.927051 2.85317 -49
      vertex 2.42705 1.76336 -49
    endloop
  endfacet
  facet normal 0.587784 -0.809018 0
    outer loop
      vertex -2.42705 1.76336 -49
      vertex -0.927051 2.85317 49
      vertex -2.42705 1.76336 49
    endloop
  endfacet
  facet normal 0.587784 -0.809018 0
    outer loop
      vertex -0.927051 2.85317 49
      vertex -2.42705 1.76336 -49
      vertex -0.927051 2.85317 -49
    endloop
  endfacet
  facet normal -0.587784 0.809018 0
    outer loop
      vertex 2.42705 -1.76336 -49
      vertex 0.927051 -2.85317 49
      vertex 2.42705 -1.76336 49
    endloop
  endfacet
  facet normal -0.587784 0.809018 0
    outer loop
      vertex 0.927051 -2.85317 49
      vertex 2.42705 -1.76336 -49
      vertex 0.927051 -2.85317 -49
    endloop
  endfacet
  facet normal 0.587784 0.809018 -0
    outer loop
      vertex -0.927051 -2.85317 -49
      vertex -2.42705 -1.76336 49
      vertex -0.927051 -2.85317 49
    endloop
  endfacet
  facet normal 0.587784 0.809018 0
    outer loop
      vertex -2.42705 -1.76336 49
      vertex -0.927051 -2.85317 -49
      vertex -2.42705 -1.76336 -49
    endloop
  endfacet
  facet normal 0.951057 0.309017 0
    outer loop
      vertex -2.42705 -1.76336 49
      vertex -3 0 -49
      vertex -3 0 49
    endloop
  endfacet
  facet normal 0.951057 0.309017 0
    outer loop
      vertex -3 0 -49
      vertex -2.42705 -1.76336 49
      vertex -2.42705 -1.76336 -49
    endloop
  endfacet
  facet normal -0.951057 0.309017 0
    outer loop
      vertex 2.42705 -1.76336 -49
      vertex 3 0 49
      vertex 3 0 -49
    endloop
  endfacet
  facet normal -0.951057 0.309017 0
    outer loop
      vertex 3 0 49
      vertex 2.42705 -1.76336 -49
      vertex 2.42705 -1.76336 49
    endloop
  endfacet
endsolid OpenSCAD_Model
