solid OpenSCAD_Model
  facet normal -1 0 0
    outer loop
      vertex 0 0 0
      vertex 0 60 25
      vertex 0 60 0
    endloop
  endfacet
  facet normal -1 -0 0
    outer loop
      vertex 0 60 25
      vertex 0 0 0
      vertex 0 0 25
    endloop
  endfacet
  facet normal -0 0 1
    outer loop
      vertex 0 60 25
      vertex 20 0 25
      vertex 20 60 25
    endloop
  endfacet
  facet normal 0 0 1
    outer loop
      vertex 20 0 25
      vertex 0 60 25
      vertex 0 0 25
    endloop
  endfacet
  facet normal 1 0 0
    outer loop
      vertex 20 60 25
      vertex 20 58 23
      vertex 20 60 0
    endloop
  endfacet
  facet normal 1 0 0
    outer loop
      vertex 20 60 25
      vertex 20 2 23
      vertex 20 58 23
    endloop
  endfacet
  facet normal 1 0 0
    outer loop
      vertex 20 2 23
      vertex 20 0 25
      vertex 20 2 2
    endloop
  endfacet
  facet normal 1 -0 0
    outer loop
      vertex 20 0 25
      vertex 20 2 23
      vertex 20 60 25
    endloop
  endfacet
  facet normal 1 -0 0
    outer loop
      vertex 20 58 2
      vertex 20 60 0
      vertex 20 58 23
    endloop
  endfacet
  facet normal 1 -0 0
    outer loop
      vertex 20 2 2
      vertex 20 60 0
      vertex 20 58 2
    endloop
  endfacet
  facet normal 1 0 0
    outer loop
      vertex 20 2 2
      vertex 20 0 0
      vertex 20 60 0
    endloop
  endfacet
  facet normal 1 0 0
    outer loop
      vertex 20 0 0
      vertex 20 2 2
      vertex 20 0 25
    endloop
  endfacet
  facet normal 0 1 -0
    outer loop
      vertex 20 60 0
      vertex 0 60 25
      vertex 20 60 25
    endloop
  endfacet
  facet normal 0 1 0
    outer loop
      vertex 0 60 25
      vertex 20 60 0
      vertex 0 60 0
    endloop
  endfacet
  facet normal 0 0 -1
    outer loop
      vertex 0 0 0
      vertex 20 60 0
      vertex 20 0 0
    endloop
  endfacet
  facet normal -0 0 -1
    outer loop
      vertex 20 60 0
      vertex 0 0 0
      vertex 0 60 0
    endloop
  endfacet
  facet normal 0 -1 0
    outer loop
      vertex 0 0 0
      vertex 20 0 25
      vertex 0 0 25
    endloop
  endfacet
  facet normal 0 -1 -0
    outer loop
      vertex 20 0 25
      vertex 0 0 0
      vertex 20 0 0
    endloop
  endfacet
  facet normal 1 -0 0
    outer loop
      vertex 7 2 23
      vertex 7 58 2
      vertex 7 58 23
    endloop
  endfacet
  facet normal 1 0 0
    outer loop
      vertex 7 58 2
      vertex 7 2 23
      vertex 7 2 2
    endloop
  endfacet
  facet normal 0 0 -1
    outer loop
      vertex 7 2 23
      vertex 20 58 23
      vertex 20 2 23
    endloop
  endfacet
  facet normal -0 0 -1
    outer loop
      vertex 20 58 23
      vertex 7 2 23
      vertex 7 58 23
    endloop
  endfacet
  facet normal 0 -1 0
    outer loop
      vertex 7 58 2
      vertex 20 58 23
      vertex 7 58 23
    endloop
  endfacet
  facet normal 0 -1 -0
    outer loop
      vertex 20 58 23
      vertex 7 58 2
      vertex 20 58 2
    endloop
  endfacet
  facet normal -0 0 1
    outer loop
      vertex 7 58 2
      vertex 20 2 2
      vertex 20 58 2
    endloop
  endfacet
  facet normal 0 0 1
    outer loop
      vertex 20 2 2
      vertex 7 58 2
      vertex 7 2 2
    endloop
  endfacet
  facet normal 0 1 -0
    outer loop
      vertex 20 2 2
      vertex 7 2 23
      vertex 20 2 23
    endloop
  endfacet
  facet normal 0 1 0
    outer loop
      vertex 7 2 23
      vertex 20 2 2
      vertex 7 2 2
    endloop
  endfacet
endsolid OpenSCAD_Model
